<svg xmlns="http://www.w3.org/2000/svg" viewBox="0 0 512 512" width="512" height="512">
  <rect width="512" height="512" rx="96" fill="#1a365d"/>
  <rect x="64" y="80" width="384" height="352" rx="24" fill="#fff"/>
  <rect x="64" y="80" width="384" height="64" rx="24" fill="#2c5282"/>
  <rect x="64" y="120" width="384" height="24" fill="#2c5282"/>
  <text x="256" y="125" text-anchor="middle" fill="#fff" font-family="Arial,sans-serif" font-size="36" font-weight="bold">ATTENDANCE</text>
  <rect x="96" y="184" width="48" height="28" rx="4" fill="#c6f6d5"/>
  <rect x="160" y="184" width="48" height="28" rx="4" fill="#feebc8"/>
  <rect x="224" y="184" width="48" height="28" rx="4" fill="#c6f6d5"/>
  <rect x="288" y="184" width="48" height="28" rx="4" fill="#fed7d7"/>
  <rect x="352" y="184" width="48" height="28" rx="4" fill="#c6f6d5"/>
  <rect x="96" y="232" width="48" height="28" rx="4" fill="#c6f6d5"/>
  <rect x="160" y="232" width="48" height="28" rx="4" fill="#c6f6d5"/>
  <rect x="224" y="232" width="48" height="28" rx="4" fill="#feebc8"/>
  <rect x="288" y="232" width="48" height="28" rx="4" fill="#c6f6d5"/>
  <rect x="352" y="232" width="48" height="28" rx="4" fill="#c6f6d5"/>
  <rect x="96" y="280" width="48" height="28" rx="4" fill="#fed7d7"/>
  <rect x="160" y="280" width="48" height="28" rx="4" fill="#c6f6d5"/>
  <rect x="224" y="280" width="48" height="28" rx="4" fill="#c6f6d5"/>
  <rect x="288" y="280" width="48" height="28" rx="4" fill="#c6f6d5"/>
  <rect x="352" y="280" width="48" height="28" rx="4" fill="#feebc8"/>
  <text x="256" y="360" text-anchor="middle" fill="#2c5282" font-family="Arial,sans-serif" font-size="28" font-weight="bold">COM.OP.</text>
  <text x="256" y="400" text-anchor="middle" fill="#718096" font-family="Arial,sans-serif" font-size="20">AJEET PARMAR</text>
</svg>
